<?xml version="1.0" encoding="UTF-8" standalone="no"?>
<!-- Created with Inkscape (http://www.inkscape.org/) -->

<svg
   width="210mm"
   height="297mm"
   viewBox="0 0 210 297"
   version="1.1"
   id="svg5"
   inkscape:version="1.1 (c68e22c387, 2021-05-23)"
   sodipodi:docname="drawing-1.svg"
   xmlns:inkscape="http://www.inkscape.org/namespaces/inkscape"
   xmlns:sodipodi="http://sodipodi.sourceforge.net/DTD/sodipodi-0.dtd"
   xmlns="http://www.w3.org/2000/svg"
   xmlns:svg="http://www.w3.org/2000/svg">
  <sodipodi:namedview
     id="namedview7"
     pagecolor="#ffffff"
     bordercolor="#111111"
     borderopacity="1"
     inkscape:pageshadow="0"
     inkscape:pageopacity="0"
     inkscape:pagecheckerboard="1"
     inkscape:document-units="mm"
     showgrid="false"
     inkscape:zoom="0.32756265"
     inkscape:cx="209.1203"
     inkscape:cy="902.11749"
     inkscape:window-width="1368"
     inkscape:window-height="842"
     inkscape:window-x="-7"
     inkscape:window-y="-7"
     inkscape:window-maximized="1"
     inkscape:current-layer="layer1" />
  <defs
     id="defs2" />
  <g
     inkscape:label="Layer 1"
     inkscape:groupmode="layer"
     id="layer1">
    <g
       id="g6005">
      <path
         style="opacity:1;fill:#000000;fill-opacity:1;stroke:none;stroke-width:3.05284;stroke-linecap:round;stroke-opacity:1"
         d="m 156.7003,269.01669 c -19.60318,-14.28692 -18.92556,-13.90306 -20.57091,-11.65294 -1.06861,1.46137 -1.18494,1.44357 -3.29623,-0.50451 -1.2037,-1.11061 -2.66634,-3.13975 -3.25034,-4.50913 -2.37258,-5.56347 -16.82344,-17.58244 -20.75914,-17.26565 -3.01876,0.24299 -3.37916,0.085 -8.32204,-3.64728 l -4.785218,-3.61329 -8.241374,-0.0215 -8.241371,-0.0215 -1.323901,2.78991 c -1.321359,2.78457 -3.60305,5.30745 -3.592971,3.97279 0.0029,-0.38759 0.727493,-1.79515 1.610145,-3.1279 0.882653,-1.33277 1.607219,-3.64392 1.610145,-5.1359 0.005,-2.55541 -0.123219,-2.68044 -2.211427,-2.15633 -3.144069,0.78911 -4.246949,1.9257 -4.23275,4.36212 0.0097,1.66696 0.180382,1.86239 0.795365,0.91077 0.636563,-0.98501 0.785309,-0.88063 0.795364,0.55813 0.0068,0.97335 -0.349703,1.99352 -0.792236,2.26702 -0.442533,0.2735 -0.715143,1.64232 -0.6058,3.04183 0.214979,2.75156 -1.28514,3.93303 -6.336472,4.99052 -2.172715,0.45487 -3.234901,-0.055 -8.187451,-3.9301 -3.194531,-2.49954 -6.611793,-6.02427 -7.790334,-8.03529 -2.063843,-3.52169 -9.501018,-10.20038 -11.358808,-10.20038 -1.145634,0 -5.556383,-4.5475 -6.844073,-7.05628 -0.509839,-0.9933 -1.816061,-4.43391 -2.902715,-7.64578 -1.812234,-5.3565 -1.873335,-5.99605 -0.738345,-7.72827 0.680564,-1.03867 1.809975,-2.10822 2.509802,-2.37676 1.78485,-0.68491 15.889055,2.08193 17.94168,3.51964 0.932626,0.65324 2.065438,0.95918 2.51736,0.67988 1.143171,-0.70652 4.829624,-8.13225 4.829624,-9.72845 0,-0.72123 -3.209641,-4.64072 -7.132534,-8.70999 -3.922894,-4.06926 -8.766913,-9.62487 -10.764488,-12.3458 -3.431795,-4.67449 -6.118304,-9.76016 -5.434039,-10.28685 0.170861,-0.13152 2.855016,-2.20987 5.964791,-4.61857 6.094635,-4.72064 8.203376,-6.15392 10.096669,-6.86254 0.66638,-0.24942 2.696991,-1.12222 4.512469,-1.93957 l 3.300868,-1.48608 14.469269,8.47291 c 18.219345,10.6689 19.98178,11.57117 22.602287,11.57117 2.487917,0 19.783159,-4.75651 20.878209,-5.7419 0.79844,-0.71848 -1.26678,-6.11159 -3.72588,-9.72973 -1.90143,-2.79762 -1.83892,-4.34 0.261,-6.43992 1.58589,-1.58589 2.25101,-1.67498 8.6366,-1.15685 7.75349,0.62911 8.2261,0.81684 14.68706,5.83424 2.54103,1.97329 7.16687,4.62423 10.27964,5.89098 10.79112,4.39148 15.79211,8.70934 13.98913,12.07824 -0.48601,0.90811 -1.60228,2.03571 -2.48061,2.50578 -0.87832,0.47007 -1.59695,1.49614 -1.59695,2.28017 0,0.78402 -0.37699,1.80248 -0.83775,2.26325 -0.56916,0.56916 -0.57737,1.5226 -0.0256,2.97389 0.66028,1.73667 0.5526,2.26904 -0.57579,2.84686 -2.47226,1.26597 -5.83046,1.81291 -5.83046,0.94958 0,-0.45272 -0.87983,-0.82312 -1.95515,-0.82312 -2.23369,0 -2.08998,-0.49273 -4.17331,14.30957 l -1.38872,9.86704 5.33887,5.88377 c 15.16358,16.71116 18.98761,20.44442 19.47165,19.00943 0.26224,-0.77745 0.65703,-1.98457 0.87733,-2.68251 0.34612,-1.09658 0.73019,-1.03424 2.82706,0.45887 2.0286,1.44448 2.42892,2.2818 2.44108,5.1057 0.0136,3.15888 0.39326,3.72143 5.85607,8.67698 3.21284,2.91449 7.9051,6.81384 10.42725,8.66521 8.89733,6.53103 6.81458,6.76918 -2.7658,0.31623 -7.54808,-5.0841 -10.89904,-6.7923 -11.48006,-5.85218 -0.25459,0.41193 -0.0935,0.97726 0.35803,1.25629 0.97073,0.59994 1.00107,5.95664 0.0595,10.50869 -0.36756,1.777 -0.7101,2.7513 -0.76119,2.16509 -0.15026,-1.72418 -3.57565,-0.76211 -3.79476,1.06585 -0.10651,0.88849 -0.70271,3.9321 -1.32488,6.76354 -0.9178,4.17677 -1.54089,5.36274 -3.30251,6.28573 -1.1942,0.62569 -2.17127,1.38134 -2.17127,1.67921 0,0.29784 1.16174,1.74016 2.58165,3.20511 4.03758,4.16573 1.73395,3.13957 -6.62032,-2.9491 z"
         id="path5610" />
      <ellipse
         style="opacity:1;fill:#000000;fill-opacity:1;stroke:none;stroke-width:1;stroke-linecap:round;stroke-opacity:1"
         id="path5911"
         cx="70.27282"
         cy="226.35999"
         rx="8.8850689"
         ry="12.116003" />
      <ellipse
         style="opacity:1;fill:#000000;fill-opacity:1;stroke:none;stroke-width:1;stroke-linecap:round;stroke-opacity:1"
         id="ellipse5993"
         cx="149.64781"
         cy="168.1516"
         rx="8.8850689"
         ry="12.116003" />
    </g>
  </g>
</svg>
